<?xml version="1.0" standalone="no"?><!DOCTYPE svg PUBLIC "-//W3C//DTD SVG 1.1//EN" "http://www.w3.org/Graphics/SVG/1.1/DTD/svg11.dtd"><svg t="1598960576085" class="icon" viewBox="0 0 1024 1024" version="1.1" xmlns="http://www.w3.org/2000/svg" p-id="8920" xmlns:xlink="http://www.w3.org/1999/xlink" width="16" height="16"><defs><style type="text/css"></style></defs><path d="M960.061 512.559 700.106 244.037l0 179.014L353.623 423.051l0 179.015 346.483 0 0 179.015L960.061 512.559zM815.725 184.365l0-59.671c0-32.82-26.108-59.671-57.809-59.671L122.76 65.023c-32.075 0-57.809 26.853-57.809 59.671l0 775.73c0 32.82 25.735 59.671 57.809 59.671l635.155 0c31.702 0 57.809-26.853 57.809-59.671l0-59.672L180.196 840.752 180.196 184.365 815.725 184.365z" p-id="8921" fill="#5b6175"></path></svg>