<?xml version="1.0" standalone="no"?><!DOCTYPE svg PUBLIC "-//W3C//DTD SVG 1.1//EN" "http://www.w3.org/Graphics/SVG/1.1/DTD/svg11.dtd"><svg t="1598932291212" class="icon" viewBox="0 0 1024 1024" version="1.1" xmlns="http://www.w3.org/2000/svg" p-id="1176" width="128" height="128" xmlns:xlink="http://www.w3.org/1999/xlink"><defs><style type="text/css"></style></defs><path d="M512.032 256c-141.376 0-256 114.624-256 256s114.624 256 256 256C653.408 768 768 653.376 768 512S653.408 256 512.032 256L512.032 256zM448 64A2 2 1440 1 0 576 64 2 2 1440 1 0 448 64zM128 192A2 2 1440 1 0 256 192 2 2 1440 1 0 128 192zM64 448c35.36 0 64 28.64 64 64 0 35.424-28.64 64-64 64s-64-28.576-64-64C0 476.64 28.64 448 64 448zM128 832A2 2 1440 1 0 256 832 2 2 1440 1 0 128 832zM448 960c0-35.488 28.64-64 64-64 35.456 0 64 28.512 64 64 0 35.264-28.544 64-64 64C476.64 1024 448 995.264 448 960zM768 832A2 2 1440 1 0 896 832 2 2 1440 1 0 768 832zM960 576c-35.328 0-64-28.672-64-64 0-35.424 28.672-64 64-64s64 28.576 64 64C1024 547.328 995.328 576 960 576zM768 192A2 2 1440 1 0 896 192 2 2 1440 1 0 768 192z" p-id="1177" fill="#546BFB"></path></svg>